<svg width="48" height="48" viewBox="0 0 48 48" fill="none" xmlns="http://www.w3.org/2000/svg">
  <rect width="48" height="48" rx="16" fill="#3B82F6"/>
  <path d="M24 12C17.3726 12 12 17.3726 12 24C12 30.6274 17.3726 36 24 36C30.6274 36 36 30.6274 36 24C36 17.3726 30.6274 12 24 12ZM24 31.2C20.132 31.2 17 28.068 17 24.2C17 20.332 20.132 17.2 24 17.2C27.868 17.2 31 20.332 31 24.2C31 28.068 27.868 31.2 24 31.2Z" fill="white"/>
  <path d="M24 21.5C22.6193 21.5 21.5 22.6193 21.5 24C21.5 25.3807 22.6193 26.5 24 26.5C25.3807 26.5 26.5 25.3807 26.5 24C26.5 22.6193 25.3807 21.5 24 21.5Z" fill="#DBEAFE"/>
</svg>
